<svg xmlns="http://www.w3.org/2000/svg" xmlns:xlink="http://www.w3.org/1999/xlink" width="450" zoomAndPan="magnify" viewBox="0 0 337.5 217.499994" height="290" preserveAspectRatio="xMidYMid meet" version="1.0"><defs><g/><clipPath id="31cc801868"><path d="M 181 176 L 278 176 L 278 217 L 181 217 Z M 181 176 " clip-rule="nonzero"/></clipPath><clipPath id="0af7026949"><path d="M 191 135 L 300.402344 135 L 300.402344 217 L 191 217 Z M 191 135 " clip-rule="nonzero"/></clipPath><clipPath id="833c5230be"><path d="M 37.367188 28 L 246 28 L 246 217 L 37.367188 217 Z M 37.367188 28 " clip-rule="nonzero"/></clipPath></defs><path fill="#36181a" d="M 279.722656 93.117188 C 279.878906 94.0625 279.878906 95.058594 279.355469 95.847656 C 278.777344 96.636719 277.777344 97.003906 276.886719 97.265625 C 266.800781 100.257812 256.085938 100.996094 245.683594 99.472656 C 242.636719 99 239.539062 98.367188 236.4375 98.683594 C 232.972656 99.050781 229.820312 100.523438 226.617188 101.835938 C 219.679688 104.722656 212.222656 106.824219 204.761719 106.140625 C 197.777344 105.457031 191.789062 100.207031 188.425781 94.007812 C 190.949219 95.585938 192.367188 95.585938 190.789062 92.011719 C 186.21875 81.667969 190.789062 67.960938 190.789062 67.960938 C 190.789062 67.960938 186.484375 76.414062 186.746094 78.671875 C 186.535156 77.519531 186.429688 76.308594 186.429688 75.15625 C 186.484375 66.175781 194.574219 59.242188 196.9375 50.574219 C 198.039062 46.636719 197.882812 42.488281 197.882812 38.390625 C 197.933594 31.5625 198.617188 24.632812 200.980469 18.277344 C 203.398438 11.871094 207.703125 6.039062 213.746094 2.835938 C 216.738281 1.261719 220.050781 0.367188 223.410156 0.210938 C 227.246094 0 231.238281 0.789062 234.285156 3.203125 C 239.222656 1.46875 244.738281 3.675781 248.78125 7.039062 C 254.351562 11.710938 258.394531 18.222656 260.128906 25.3125 C 261.703125 31.773438 261.496094 38.757812 264.121094 44.851562 C 266.066406 49.316406 269.425781 52.992188 272.421875 56.878906 C 275.363281 60.765625 278.042969 65.175781 278.148438 70.0625 C 278.199219 72.84375 277.464844 75.574219 276.9375 78.304688 C 276.9375 73.945312 273.3125 68.800781 273.3125 68.800781 C 275.730469 75.574219 275.679688 82.453125 276.9375 86.027344 C 276.9375 86.027344 276.9375 86.027344 276.9375 86.078125 C 277.675781 88.441406 279.25 90.59375 279.722656 93.117188 Z M 279.722656 93.117188 " fill-opacity="1" fill-rule="nonzero"/><g clip-path="url(#31cc801868)"><path fill="#8f5fa3" d="M 197.304688 176.203125 C 197.304688 176.203125 259.394531 178.828125 263.859375 182.03125 C 268.324219 185.234375 276.097656 205.085938 277.042969 221.210938 C 216.109375 228.5625 181.964844 221 181.964844 221 C 183.226562 201.304688 191.839844 180.457031 191.839844 180.457031 Z M 197.304688 176.203125 " fill-opacity="1" fill-rule="nonzero"/></g><path fill="#ff7f4d" d="M 164.367188 134.972656 C 174.242188 125.207031 189.425781 115.648438 189.425781 115.648438 L 198.566406 128.722656 L 195.78125 133.082031 C 195.359375 134.605469 195.046875 138.125 194.46875 142.011719 L 191.527344 143.273438 Z M 164.367188 134.972656 " fill-opacity="1" fill-rule="nonzero"/><g clip-path="url(#0af7026949)"><path fill="#faac86" d="M 265.800781 176.203125 C 265.539062 178.09375 264.804688 181.035156 263.859375 182.03125 C 240.640625 188.332031 191.839844 180.457031 191.839844 180.457031 C 191.472656 178.355469 191.261719 177.515625 191.527344 175.519531 C 202.871094 177.621094 243.058594 179.144531 265.800781 176.203125 Z M 268.796875 142.167969 C 270.320312 146.792969 276.9375 172.894531 278.09375 177.199219 C 279.25 181.507812 280.617188 219.320312 280.773438 221.421875 L 297.53125 218.585938 C 297.53125 218.585938 300.210938 194.320312 300.210938 175.308594 C 300.210938 169.375 295.585938 135.5 295.585938 135.5 Z M 268.796875 142.167969 " fill-opacity="1" fill-rule="nonzero"/></g><path fill="#84c3ae" d="M 295.585938 135.445312 C 295.585938 135.445312 277.148438 141.277344 268.796875 142.167969 L 266.171875 133.871094 C 266.171875 133.871094 265.90625 142.640625 264.175781 145.582031 C 264.175781 145.582031 266.851562 154.089844 264.382812 158.136719 C 264.382812 158.136719 266.851562 165.644531 265.855469 176.253906 C 243.371094 181.609375 202.925781 177.671875 191.578125 175.625 C 192.101562 171.476562 193.3125 165.066406 195.675781 161.285156 C 192.261719 154.039062 194.941406 144.796875 194.941406 144.796875 C 194.941406 144.796875 194.835938 141.644531 194.097656 138.230469 C 194.097656 138.230469 175.554688 137.757812 168.832031 132.875 C 170.828125 102.515625 181.070312 88.601562 190.527344 83.296875 C 190.527344 83.296875 202.136719 77.9375 211.59375 74.734375 C 230.765625 85.1875 247.207031 72.792969 252.933594 74.996094 C 262.230469 78.621094 275.78125 85.082031 282.613281 93.535156 C 290.386719 103.253906 295.375 125.730469 295.585938 135.445312 Z M 295.585938 135.445312 " fill-opacity="1" fill-rule="nonzero"/><path fill="#fffceb" d="M 259.972656 112.546875 C 260.390625 117.957031 256.347656 122.632812 250.9375 123.050781 C 245.527344 123.472656 240.851562 119.429688 240.429688 114.019531 C 240.011719 108.609375 244.054688 103.933594 249.464844 103.515625 C 254.875 103.09375 259.550781 107.191406 259.972656 112.546875 Z M 259.972656 112.546875 " fill-opacity="1" fill-rule="nonzero"/><path fill="#ff7f4d" d="M 217.894531 72.425781 C 219.945312 71.636719 221.675781 70.847656 221.992188 70.324219 C 222.097656 70.164062 222.148438 70.0625 222.203125 69.902344 L 230.710938 67.90625 L 240.902344 69.484375 C 240.957031 69.535156 240.957031 69.589844 241.007812 69.640625 C 241.324219 70.113281 242.058594 70.742188 244.054688 71.636719 C 233.550781 76.414062 222.519531 73.316406 217.894531 72.425781 Z M 245.160156 115.382812 C 244.160156 114.648438 244.054688 112.757812 245.367188 112.023438 C 245.421875 112.023438 245.421875 111.972656 245.472656 111.972656 L 244.210938 111.027344 C 244.054688 111.128906 243.949219 111.234375 243.792969 111.339844 C 241.953125 112.917969 242.742188 116.121094 244.84375 117.066406 C 243.898438 116.488281 244.527344 115.070312 245.160156 115.382812 Z M 298.054688 154.300781 L 297.53125 150.308594 L 283.292969 151.675781 L 272.210938 154.828125 L 273.367188 159.132812 L 283.976562 158.398438 Z M 298.054688 154.300781 " fill-opacity="1" fill-rule="nonzero"/><path fill="#ce2d25" d="M 222.203125 69.851562 C 222.675781 68.800781 222.992188 67.488281 223.097656 66.015625 C 228.035156 67.695312 234.128906 67.171875 239.589844 65.542969 C 239.851562 67.015625 240.273438 68.378906 240.851562 69.429688 Z M 244.476562 113.125 L 244.371094 113.125 Z M 243.792969 111.289062 C 243.582031 111.445312 243.425781 111.65625 243.320312 111.8125 C 243.6875 111.394531 244.789062 111.8125 244.582031 112.757812 C 244.738281 112.445312 245 112.179688 245.367188 111.972656 C 246.472656 111.339844 247.628906 112.023438 248.46875 112.863281 L 249.726562 111.867188 C 248.046875 110.082031 245.734375 109.609375 243.792969 111.289062 Z M 243.265625 111.917969 C 243.214844 111.972656 243.265625 111.972656 243.265625 111.917969 Z M 297.53125 150.308594 L 297.109375 147 L 282.558594 146.6875 L 271.265625 151.253906 L 272.261719 154.828125 Z M 297.53125 150.308594 " fill-opacity="1" fill-rule="nonzero"/><path fill="#3795b9" d="M 250.777344 74.210938 C 251.410156 74.417969 252.144531 74.683594 252.878906 74.890625 C 249.097656 92.066406 215.320312 88.863281 211.539062 74.628906 C 212.011719 74.472656 212.539062 74.316406 213.117188 74.105469 C 214.796875 76.308594 219.578125 81.195312 230.136719 82.507812 C 241.0625 83.875 248.257812 77.097656 250.777344 74.210938 Z M 247.46875 112.023438 L 247.46875 112.128906 C 247.46875 112.128906 247.523438 112.128906 247.523438 112.179688 Z M 253.246094 115.332031 C 252.566406 115.015625 251.882812 114.335938 251.25 113.492188 C 251.410156 113.335938 251.566406 113.125 251.722656 112.917969 L 250.570312 111.8125 C 250.410156 111.972656 250.253906 112.179688 250.148438 112.390625 C 249.675781 111.761719 249.152344 111.289062 248.574219 110.921875 C 249.152344 111.5 248.308594 112.496094 247.574219 112.179688 C 248.203125 112.546875 248.730469 113.125 249.046875 113.703125 C 248.886719 113.964844 248.679688 114.230469 248.519531 114.4375 L 249.203125 115.910156 C 249.832031 115.332031 250.199219 114.753906 250.199219 114.753906 C 250.199219 114.753906 250.882812 115.699219 252.039062 116.382812 L 253.089844 115.960938 Z M 297.109375 147 L 296.53125 142.640625 L 281.667969 143.007812 L 270.371094 147.945312 L 271.265625 151.203125 Z M 297.109375 147 " fill-opacity="1" fill-rule="nonzero"/><path fill="#052959" d="M 254.769531 117.011719 C 253.5625 117.171875 252.511719 116.699219 251.722656 116.171875 L 251.722656 116.121094 C 252.300781 116.539062 253.144531 115.542969 252.722656 115.070312 C 253.457031 115.542969 254.191406 115.699219 255.035156 115.28125 C 255.820312 114.910156 256.191406 113.863281 255.925781 112.96875 L 257.398438 112.339844 C 258.132812 114.230469 256.976562 116.75 254.769531 117.011719 Z M 254.769531 117.011719 " fill-opacity="1" fill-rule="nonzero"/><path fill="#104e39" d="M 194.308594 138.125 L 193.785156 138.230469 C 193.574219 137.441406 193.417969 136.550781 193.257812 135.65625 L 192.417969 135.5 L 192.523438 134.972656 L 193.207031 135.078125 C 192.3125 128.304688 193.152344 119.742188 195.359375 115.28125 L 195.832031 115.488281 C 193.3125 120.636719 192.578125 131.140625 194.308594 138.125 Z M 228.507812 131.875 L 228.085938 132.191406 C 230.554688 135.816406 233.601562 138.964844 237.171875 141.488281 L 237.488281 141.066406 C 233.917969 138.546875 230.921875 135.445312 228.507812 131.875 Z M 264.75 121.058594 C 265.644531 125.785156 266.011719 130.613281 265.855469 135.394531 L 266.378906 135.394531 C 266.539062 130.5625 266.171875 125.679688 265.277344 120.898438 Z M 263.910156 111.339844 L 261.652344 101.097656 L 261.128906 101.203125 L 263.386719 111.445312 Z M 193.050781 115.542969 C 192 113.652344 191.054688 111.65625 190.265625 109.609375 L 189.792969 109.816406 C 190.632812 111.867188 191.578125 113.863281 192.628906 115.804688 Z M 261.707031 159.132812 L 262.074219 159.554688 C 262.808594 158.921875 263.648438 158.34375 264.542969 157.925781 L 264.332031 157.453125 C 263.332031 157.871094 262.492188 158.449219 261.707031 159.132812 Z M 194.78125 144.796875 L 197.144531 148.417969 L 197.566406 148.15625 L 195.203125 144.53125 Z M 222.097656 157.664062 L 222.097656 158.1875 C 225.40625 158.1875 228.769531 158.082031 232.078125 157.871094 L 232.027344 157.347656 C 228.769531 157.558594 225.40625 157.664062 222.097656 157.664062 Z M 286.027344 133.976562 L 286.183594 134.5 L 287.183594 134.1875 L 287.023438 133.660156 Z M 288.023438 133.347656 L 288.179688 133.871094 L 289.179688 133.554688 L 289.019531 133.03125 Z M 284.03125 134.554688 L 284.1875 135.078125 L 285.1875 134.765625 L 285.027344 134.238281 Z M 281.980469 135.183594 L 282.140625 135.710938 L 283.136719 135.394531 L 282.980469 134.871094 Z M 290.019531 132.714844 L 290.175781 133.242188 L 291.175781 132.925781 L 291.015625 132.402344 Z M 295.0625 131.191406 L 294.0625 131.507812 L 294.222656 132.03125 L 295.21875 131.71875 Z M 292.066406 132.136719 L 292.226562 132.664062 L 293.222656 132.347656 L 293.066406 131.824219 Z M 271.949219 138.230469 L 272.105469 138.753906 L 273.105469 138.441406 L 272.945312 137.914062 Z M 277.988281 136.390625 L 278.148438 136.917969 L 279.144531 136.601562 L 278.988281 136.078125 Z M 273.945312 137.652344 L 274.101562 138.179688 L 275.101562 137.863281 L 274.941406 137.335938 Z M 275.992188 137.023438 L 276.152344 137.546875 L 277.148438 137.234375 L 276.992188 136.707031 Z M 267.957031 139.492188 L 268.113281 140.015625 L 269.113281 139.699219 L 268.953125 139.175781 Z M 279.984375 135.816406 L 280.144531 136.339844 L 281.140625 136.023438 L 280.984375 135.5 Z M 269.953125 138.859375 L 270.109375 139.386719 L 271.109375 139.070312 L 270.949219 138.546875 Z M 182.070312 133.871094 L 183.121094 134.027344 L 183.226562 133.503906 L 182.175781 133.347656 Z M 179.96875 133.503906 L 181.019531 133.660156 L 181.125 133.136719 L 180.074219 132.980469 Z M 177.921875 133.1875 L 178.972656 133.347656 L 179.074219 132.820312 L 178.027344 132.664062 Z M 184.117188 134.1875 L 185.167969 134.34375 L 185.273438 133.820312 L 184.222656 133.660156 Z M 186.21875 134.5 L 187.269531 134.660156 L 187.375 134.132812 L 186.324219 133.976562 Z M 190.371094 135.183594 L 191.421875 135.34375 L 191.527344 134.816406 L 190.476562 134.660156 Z M 188.269531 134.871094 L 189.320312 135.027344 L 189.425781 134.5 L 188.375 134.34375 Z M 263.070312 146.949219 L 264.4375 145.109375 L 264.015625 144.796875 L 262.652344 146.632812 Z M 263.070312 146.949219 " fill-opacity="1" fill-rule="nonzero"/><path fill="#052959" d="M 189.214844 155.929688 C 189.003906 156.140625 188.742188 156.296875 188.53125 156.453125 C 185.222656 158.554688 155.015625 159.132812 156.066406 147.578125 C 156.226562 145.949219 157.015625 144.113281 158.222656 142.222656 Z M 296.53125 142.640625 L 295.953125 138.074219 L 281.140625 140.171875 L 269.425781 144.585938 L 270.371094 148 Z M 296.53125 142.640625 " fill-opacity="1" fill-rule="nonzero"/><path fill="#642a74" d="M 272.578125 199.152344 C 272.367188 199.152344 272.210938 199.207031 272 199.207031 L 272 198.679688 C 272.160156 198.679688 272.316406 198.679688 272.472656 198.628906 C 271.003906 194.109375 268.007812 186.441406 263.910156 182.082031 L 253.300781 183.921875 C 253.300781 183.921875 260.023438 201.882812 273.578125 202.144531 C 273.578125 202.144531 273.261719 200.832031 272.578125 198.890625 Z M 256.136719 184.761719 C 255.820312 184.183594 255.613281 183.816406 255.613281 183.816406 L 256.085938 183.605469 C 256.085938 183.605469 256.242188 183.976562 256.558594 184.550781 Z M 257.1875 186.601562 C 256.976562 186.285156 256.820312 185.96875 256.664062 185.707031 L 257.136719 185.445312 C 257.292969 185.707031 257.449219 186.023438 257.660156 186.339844 Z M 258.289062 188.386719 C 258.082031 188.070312 257.921875 187.808594 257.710938 187.492188 L 258.132812 187.230469 C 258.289062 187.492188 258.5 187.808594 258.710938 188.125 Z M 259.5 190.121094 C 259.289062 189.804688 259.078125 189.542969 258.867188 189.226562 L 259.289062 188.910156 C 259.5 189.175781 259.65625 189.488281 259.867188 189.75 Z M 260.757812 191.800781 C 260.550781 191.539062 260.339844 191.222656 260.128906 190.960938 L 260.550781 190.644531 C 260.757812 190.90625 260.96875 191.222656 261.179688 191.484375 Z M 262.125 193.429688 C 261.914062 193.164062 261.652344 192.902344 261.441406 192.640625 L 261.863281 192.324219 C 262.074219 192.585938 262.335938 192.851562 262.546875 193.113281 Z M 263.597656 194.949219 C 263.332031 194.6875 263.070312 194.476562 262.859375 194.214844 L 263.226562 193.847656 C 263.492188 194.109375 263.703125 194.375 263.964844 194.582031 Z M 265.171875 196.371094 C 264.910156 196.160156 264.648438 195.898438 264.382812 195.6875 L 264.75 195.320312 C 265.015625 195.527344 265.277344 195.792969 265.539062 196 Z M 266.90625 197.628906 C 266.589844 197.472656 266.328125 197.261719 266.011719 197.050781 L 266.328125 196.632812 C 266.644531 196.84375 266.90625 197.050781 267.167969 197.210938 Z M 268.847656 198.574219 C 268.535156 198.46875 268.167969 198.3125 267.851562 198.15625 L 268.0625 197.683594 C 268.375 197.839844 268.691406 197.996094 269.007812 198.101562 Z M 270.949219 199.101562 C 270.582031 199.046875 270.265625 198.996094 269.898438 198.890625 L 270.058594 198.363281 C 270.371094 198.46875 270.738281 198.523438 271.054688 198.574219 Z M 199.351562 182.660156 L 198.828125 182.554688 C 198.933594 182.1875 198.933594 181.925781 198.984375 181.769531 L 191.839844 180.5625 C 191.839844 180.5625 188.53125 187.652344 186.167969 197.210938 L 186.324219 197.105469 L 186.585938 197.578125 L 186.324219 197.734375 L 186.113281 197.367188 C 185.851562 198.417969 185.589844 199.46875 185.378906 200.570312 C 185.378906 200.570312 197.828125 197.261719 200.929688 182.136719 L 199.457031 181.875 C 199.457031 181.980469 199.40625 182.242188 199.351562 182.660156 Z M 187.535156 197 L 187.269531 196.527344 C 187.585938 196.371094 187.847656 196.160156 188.164062 196 L 188.425781 196.421875 C 188.109375 196.632812 187.847656 196.789062 187.535156 197 Z M 189.320312 195.898438 L 189.003906 195.476562 C 189.320312 195.265625 189.582031 195.109375 189.84375 194.898438 L 190.160156 195.320312 C 189.898438 195.476562 189.632812 195.6875 189.320312 195.898438 Z M 191.054688 194.636719 L 190.738281 194.214844 C 191 194.003906 191.261719 193.796875 191.527344 193.585938 L 191.839844 194.003906 C 191.578125 194.214844 191.316406 194.425781 191.054688 194.636719 Z M 192.679688 193.269531 L 192.3125 192.902344 C 192.578125 192.640625 192.839844 192.429688 193.050781 192.167969 L 193.417969 192.535156 C 193.207031 192.796875 192.945312 193.058594 192.679688 193.269531 Z M 194.203125 191.800781 L 193.835938 191.433594 C 194.097656 191.167969 194.308594 190.90625 194.519531 190.644531 L 194.941406 191.011719 C 194.675781 191.273438 194.414062 191.539062 194.203125 191.800781 Z M 195.570312 190.222656 L 195.148438 189.910156 C 195.359375 189.648438 195.570312 189.332031 195.78125 189.070312 L 196.199219 189.382812 C 196.042969 189.648438 195.78125 189.910156 195.570312 190.222656 Z M 196.832031 188.492188 L 196.410156 188.230469 C 196.621094 187.914062 196.777344 187.652344 196.9375 187.335938 L 197.410156 187.597656 C 197.199219 187.859375 197.042969 188.175781 196.832031 188.492188 Z M 197.882812 186.652344 L 197.410156 186.390625 C 197.566406 186.074219 197.722656 185.761719 197.828125 185.445312 L 198.300781 185.65625 C 198.195312 185.96875 198.039062 186.285156 197.882812 186.652344 Z M 198.722656 184.710938 L 198.25 184.550781 C 198.355469 184.183594 198.511719 183.871094 198.566406 183.554688 L 199.089844 183.710938 C 198.984375 183.976562 198.878906 184.34375 198.722656 184.710938 Z M 237.542969 184.289062 C 237.699219 185.128906 241.324219 204.929688 232.394531 208.027344 L 232.5 210.757812 L 231.972656 210.757812 L 231.082031 184.34375 L 231.605469 184.34375 L 232.394531 207.503906 C 240.691406 204.351562 237.121094 184.605469 237.070312 184.449219 Z M 189.214844 155.929688 L 158.222656 142.273438 C 158.695312 141.539062 159.273438 140.75 159.851562 139.964844 L 188.847656 148.105469 L 191.789062 152.199219 C 191.105469 153.671875 190.265625 154.984375 189.214844 155.929688 Z M 252.144531 112.546875 C 252.09375 112.601562 252.039062 112.652344 252.039062 112.652344 L 251.148438 111.289062 C 252.722656 109.816406 254.71875 109.503906 256.558594 110.921875 C 257.398438 111.550781 257.765625 112.546875 257.710938 113.546875 C 257.554688 112.757812 256.136719 112.96875 256.136719 113.652344 C 256.191406 112.917969 255.820312 112.074219 255.035156 111.707031 C 253.984375 111.183594 252.878906 111.761719 252.144531 112.546875 Z M 256.03125 113.703125 C 256.03125 113.703125 256.085938 113.703125 256.03125 113.703125 C 256.085938 113.703125 256.03125 113.703125 256.03125 113.703125 Z M 269.425781 144.585938 L 268.742188 142.117188 L 295.535156 135.394531 L 295.902344 138.019531 L 281.457031 141.589844 Z M 299.367188 164.386719 L 275.941406 168.535156 L 275.046875 165.277344 L 298.84375 160.550781 Z M 299.367188 164.386719 " fill-opacity="1" fill-rule="nonzero"/><path fill="#0aa650" d="M 159.851562 139.910156 C 160.53125 139.019531 161.320312 138.074219 162.214844 137.179688 L 190.527344 143.902344 L 193.625 146.527344 C 193.152344 148.523438 192.578125 150.46875 191.839844 152.148438 L 188.109375 150.730469 Z M 230.082031 83.453125 C 241.0625 84.820312 248.257812 77.097656 250.777344 74.261719 C 249.464844 73.789062 248.308594 73.421875 247.3125 73 C 244.738281 74.578125 239.589844 75.3125 231.554688 75.996094 C 223.410156 76.730469 217.949219 75.417969 215.269531 73.371094 C 214.480469 73.632812 213.746094 73.894531 213.0625 74.105469 C 214.742188 76.363281 219.472656 82.140625 230.082031 83.453125 Z M 251.671875 113.074219 C 251.671875 113.019531 251.722656 113.019531 251.722656 112.96875 C 251.777344 112.917969 251.777344 112.917969 251.828125 112.863281 C 251.933594 112.757812 252.039062 112.652344 252.09375 112.546875 C 252.25 112.390625 252.460938 112.234375 252.617188 112.074219 C 251.777344 112.652344 251.304688 111.128906 251.882812 110.65625 C 251.515625 110.921875 251.09375 111.234375 250.777344 111.601562 C 250.570312 111.867188 250.359375 112.128906 250.148438 112.390625 C 249.992188 112.601562 249.359375 113.335938 249.046875 113.652344 C 248.574219 114.386719 248.101562 114.964844 247.574219 115.332031 C 247.835938 115.699219 248.203125 116.171875 248.574219 116.382812 C 249.464844 115.753906 250.042969 114.964844 250.199219 114.753906 C 250.199219 114.753906 250.199219 114.703125 250.253906 114.703125 C 250.570312 114.28125 250.988281 113.808594 251.304688 113.492188 C 251.355469 113.390625 251.460938 113.335938 251.515625 113.230469 C 251.566406 113.179688 251.566406 113.179688 251.671875 113.074219 C 251.621094 113.125 251.671875 113.074219 251.671875 113.074219 Z M 298.894531 160.550781 L 298.476562 157.503906 L 284.398438 159.34375 L 274.3125 162.390625 L 275.101562 165.226562 Z M 298.894531 160.550781 " fill-opacity="1" fill-rule="nonzero"/><path fill="#ffc055" d="M 162.214844 137.179688 C 162.898438 136.445312 163.632812 135.710938 164.367188 134.972656 L 194.46875 142.011719 C 194.257812 143.480469 193.941406 145.058594 193.625 146.527344 Z M 231.5 77.726562 C 239.539062 77.046875 244.738281 74.578125 247.3125 73 C 245.945312 72.476562 244.84375 72.054688 244.003906 71.636719 C 234.601562 75.050781 222.519531 73.316406 217.894531 72.425781 C 217.054688 72.738281 216.160156 73.054688 215.320312 73.371094 C 217.949219 75.417969 223.304688 78.464844 231.5 77.726562 Z M 249.253906 115.910156 C 248.835938 116.328125 247.679688 115.488281 248.414062 114.597656 C 247.574219 115.59375 246.628906 116.066406 245.472656 115.542969 C 245.367188 115.488281 245.261719 115.4375 245.160156 115.332031 C 244.527344 115.015625 243.898438 116.433594 244.84375 116.960938 C 245.160156 117.117188 245.472656 117.171875 245.894531 117.222656 C 247.3125 117.378906 248.46875 116.59375 249.253906 115.910156 Z M 298.476562 157.558594 L 298.054688 154.300781 L 273.417969 159.132812 L 274.3125 162.496094 Z M 298.476562 157.558594 " fill-opacity="1" fill-rule="nonzero"/><path fill="#faac86" d="M 205.289062 43.171875 C 204.34375 40.441406 205.183594 36.761719 208.28125 35.871094 C 210.226562 35.34375 212.484375 34.820312 215.214844 33.402344 C 219.785156 31.40625 224.042969 23.792969 225.25 19.484375 C 225.25 19.484375 226.246094 26.15625 223.042969 29.882812 C 228.191406 27.046875 232.867188 24.105469 234.808594 15.808594 C 237.382812 30.511719 249.203125 32.140625 249.992188 31.984375 C 255.613281 30.304688 258.238281 41.859375 249.992188 42.015625 C 247.101562 43.851562 244.476562 45.953125 244.582031 53.570312 C 243.476562 54.882812 242.164062 56.089844 240.640625 57.089844 C 239.378906 58.296875 238.960938 62.183594 239.539062 65.648438 C 234.074219 67.539062 226.300781 67.800781 223.042969 66.121094 C 223.253906 63.128906 222.726562 59.503906 221.414062 56.5625 C 220.890625 51.257812 217.738281 49.15625 213.378906 45.640625 C 213.0625 45.796875 210.804688 46.691406 210.488281 46.742188 C 209.699219 46.847656 208.859375 46.792969 208.074219 46.53125 C 206.707031 45.796875 205.761719 44.535156 205.289062 43.171875 Z M 205.289062 43.171875 " fill-opacity="1" fill-rule="nonzero"/><path fill="#f49278" d="M 225.25 48.003906 C 228.191406 46.375 234.023438 45.953125 238.382812 46.953125 C 235.964844 53.253906 227.296875 52.152344 225.25 48.003906 Z M 213.378906 45.535156 C 215.164062 50.996094 218.628906 54.460938 221.414062 56.457031 C 221.414062 56.511719 221.46875 56.5625 221.46875 56.617188 C 225.300781 50.628906 219.578125 41.332031 213.378906 45.535156 Z M 244.632812 53.464844 C 248.257812 49.15625 249.886719 43.695312 250.042969 41.910156 C 246.105469 40.386719 238.382812 47.582031 244.632812 53.464844 Z M 244.632812 53.464844 " fill-opacity="1" fill-rule="nonzero"/><g clip-path="url(#833c5230be)"><path fill="#fffceb" d="M 37.5625 117.484375 C 38.453125 117.117188 173.664062 98 173.664062 98 L 186.21875 207.554688 L 50.957031 225.621094 Z M 236.332031 34.136719 C 236.964844 35.082031 243.371094 34.820312 245.054688 31.722656 C 244.84375 28.414062 239.644531 28.414062 237.910156 29.621094 C 236.175781 30.828125 236.332031 34.136719 236.332031 34.136719 Z M 224.199219 29.988281 C 222.414062 28.726562 217.265625 28.78125 217.054688 32.089844 C 218.683594 35.1875 225.144531 35.449219 225.773438 34.503906 C 225.722656 34.503906 225.984375 31.25 224.199219 29.988281 Z M 224.199219 29.988281 " fill-opacity="1" fill-rule="nonzero"/></g><path fill="#faac86" d="M 109.84375 104.355469 C 109.054688 102.515625 112.3125 99.890625 114.78125 102.308594 C 114.570312 100.417969 117.355469 98.421875 119.980469 100.3125 C 119.140625 98.105469 122.605469 96.898438 123.65625 98.160156 C 123.449219 97.003906 130.75 96.792969 132.21875 96.949219 C 133.691406 97.109375 135.792969 101.203125 136.632812 103.460938 L 128.070312 104.828125 C 130.75 109.03125 130.589844 112.445312 127.441406 112.546875 C 127.386719 115.910156 124.550781 115.699219 122.449219 114.019531 C 122.449219 114.019531 122.449219 115.910156 120.558594 115.910156 C 118.667969 115.910156 113.203125 110.183594 113.203125 110.183594 C 113.519531 110.816406 112.417969 112.546875 111.050781 111.917969 C 109.683594 111.289062 106.953125 108.765625 106.375 107.246094 C 105.378906 104.304688 108.109375 102.570312 109.84375 104.355469 Z M 109.84375 104.355469 " fill-opacity="1" fill-rule="nonzero"/><path fill="#36181a" d="M 245.421875 27.414062 C 242.898438 26.101562 236.910156 26.996094 235.914062 27.152344 C 238.695312 22.6875 244.421875 25.472656 245.421875 27.414062 Z M 225.40625 27.519531 C 222.625 23.054688 216.949219 25.839844 215.898438 27.78125 C 218.472656 26.46875 224.410156 27.363281 225.40625 27.519531 Z M 131.640625 102.042969 L 133.953125 103.988281 L 134.269531 103.566406 L 131.746094 101.46875 L 131.589844 101.519531 C 129.4375 102.148438 127.597656 101.992188 126.125 101.046875 C 124.601562 100.101562 123.921875 98.578125 123.867188 98.054688 L 123.34375 98.105469 C 123.449219 98.734375 124.183594 100.363281 125.8125 101.414062 C 125.96875 101.730469 127.019531 103.410156 127.808594 104.828125 L 128.28125 104.566406 C 127.753906 103.621094 127.125 102.570312 126.703125 101.886719 C 128.175781 102.515625 129.804688 102.570312 131.640625 102.042969 Z M 232.917969 37.132812 C 233.179688 37.65625 233.390625 38.179688 233.601562 38.707031 C 233.8125 39.335938 234.074219 40.542969 233.550781 41.488281 L 234.023438 41.753906 C 234.496094 40.914062 234.496094 39.757812 234.074219 38.550781 C 233.863281 37.972656 233.601562 37.445312 233.390625 36.921875 C 233.179688 36.5 233.023438 36.132812 232.867188 35.714844 C 232.339844 34.398438 232.132812 32.773438 232.183594 30.984375 L 231.65625 30.984375 C 231.605469 32.878906 231.867188 34.503906 232.394531 35.921875 C 232.5 36.289062 232.707031 36.710938 232.917969 37.132812 Z M 225.722656 47.792969 L 225.25 47.738281 L 225.195312 48.265625 L 225.667969 48.316406 C 226.667969 48.421875 228.507812 48.582031 230.660156 48.582031 C 233.078125 48.582031 235.914062 48.371094 238.488281 47.53125 L 238.328125 47.003906 C 233.652344 48.582031 227.875 48.003906 225.722656 47.792969 Z M 120.085938 100.050781 L 119.824219 100.523438 C 120.558594 100.996094 127.070312 111.183594 127.175781 112.496094 L 127.703125 112.445312 C 127.597656 111.027344 120.820312 100.46875 120.085938 100.050781 Z M 126.179688 117.589844 C 126.441406 118.324219 126.757812 119.113281 127.125 119.796875 L 127.597656 119.585938 C 127.28125 118.902344 126.964844 118.167969 126.703125 117.433594 Z M 231.605469 41.960938 L 231.394531 41.488281 C 230.816406 41.699219 230.082031 41.59375 229.609375 41.121094 L 229.242188 41.488281 C 229.660156 41.910156 230.238281 42.121094 230.765625 42.121094 C 231.082031 42.066406 231.34375 42.015625 231.605469 41.960938 Z M 119.875 116.855469 C 119.71875 116.90625 119.613281 117.117188 119.558594 117.222656 L 119.140625 118.957031 L 119.664062 119.0625 L 120.085938 117.273438 C 120.03125 117.328125 119.929688 117.328125 119.875 117.273438 L 120.191406 116.855469 C 120.085938 116.855469 119.980469 116.800781 119.875 116.855469 Z M 113.464844 109.921875 C 112.46875 108.976562 110.472656 105.039062 110.105469 104.25 L 109.632812 104.460938 C 110.210938 105.5625 112.101562 109.292969 113.097656 110.289062 Z M 112.519531 117.800781 L 112.890625 118.167969 L 115.566406 115.121094 L 115.199219 114.753906 Z M 114.988281 102.203125 L 114.515625 102.414062 C 114.886719 103.304688 121.453125 113.597656 122.34375 114.230469 L 122.660156 113.808594 C 121.976562 113.285156 115.359375 103.148438 114.988281 102.203125 Z M 221.574219 56.195312 L 221.257812 56.617188 C 223.882812 58.714844 228.035156 59.765625 232.027344 59.765625 C 235.546875 59.765625 238.90625 58.925781 240.851562 57.140625 L 240.484375 56.773438 C 236.597656 60.292969 226.351562 59.976562 221.574219 56.195312 Z M 237.699219 29.621094 C 236.226562 30.777344 236.175781 32.613281 236.332031 33.558594 C 236.4375 32.667969 236.753906 31.195312 238.222656 30.25 C 237.855469 30.671875 237.648438 31.25 237.648438 31.828125 C 237.648438 33.246094 238.800781 34.398438 240.21875 34.398438 C 241.640625 34.398438 242.792969 33.246094 242.792969 31.828125 C 242.792969 30.671875 242.007812 29.671875 240.902344 29.359375 C 243.582031 29.09375 244.683594 30.722656 244.84375 30.933594 C 244.84375 30.144531 244.003906 28.621094 244.003906 28.621094 C 243.6875 28.78125 240.117188 27.78125 237.699219 29.621094 Z M 244.894531 30.984375 Z M 251.410156 34.820312 L 251.042969 34.453125 C 249.726562 35.714844 249.253906 37.550781 248.835938 39.074219 L 249.359375 39.230469 C 249.519531 38.652344 249.675781 38.078125 249.886719 37.445312 L 251.355469 38.8125 L 251.722656 38.445312 L 250.097656 36.921875 C 250.359375 36.132812 250.777344 35.398438 251.410156 34.820312 Z M 279.40625 176.203125 L 279.039062 176.570312 C 280.300781 177.777344 281.769531 178.773438 283.398438 179.40625 L 283.609375 178.933594 C 282.085938 178.300781 280.617188 177.355469 279.40625 176.203125 Z M 207.125 38.078125 L 206.863281 38.550781 C 207.808594 39.023438 208.597656 39.703125 209.226562 40.542969 L 208.859375 40.914062 C 208.335938 41.4375 207.808594 42.015625 207.125 42.332031 L 207.335938 42.804688 C 208.125 42.433594 208.703125 41.859375 209.226562 41.28125 L 209.542969 40.964844 C 209.910156 41.488281 210.226562 42.066406 210.4375 42.644531 L 210.910156 42.488281 C 210.277344 40.597656 208.859375 39.023438 207.125 38.078125 Z M 129.804688 114.4375 L 129.539062 114.859375 C 130.328125 115.382812 131.011719 116.121094 131.433594 116.960938 L 131.90625 116.699219 C 131.433594 115.804688 130.695312 115.015625 129.804688 114.4375 Z M 132.796875 110.449219 L 132.746094 110.972656 C 133.902344 111.078125 135.054688 111.128906 136.210938 111.128906 C 136.421875 111.128906 136.632812 111.128906 136.84375 111.128906 L 136.84375 110.605469 C 135.476562 110.605469 134.109375 110.554688 132.796875 110.449219 Z M 224.410156 32.246094 C 224.410156 31.667969 224.199219 31.089844 223.832031 30.671875 C 225.300781 31.617188 225.667969 33.085938 225.722656 33.980469 C 225.828125 33.035156 225.828125 31.195312 224.355469 30.039062 C 221.941406 28.203125 218.367188 29.199219 218.054688 29.09375 C 218.054688 29.09375 217.160156 30.617188 217.210938 31.40625 C 217.371094 31.195312 218.472656 29.566406 221.152344 29.832031 C 220.050781 30.144531 219.261719 31.089844 219.261719 32.300781 C 219.261719 33.71875 220.417969 34.871094 221.835938 34.871094 C 223.253906 34.871094 224.410156 33.664062 224.410156 32.246094 Z M 217.160156 31.40625 Z M 217.160156 31.40625 " fill-opacity="1" fill-rule="nonzero"/><g fill="#000000" fill-opacity="0.4"><g transform="translate(62.51786, 155.106613)"><g><path d="M 3.25 -2.253906 C 5.902344 -0.640625 9.585938 -0.613281 11.925781 -3.71875 C 14.640625 -7.289062 14.589844 -12.292969 11.679688 -16.324219 C 10.792969 -17.589844 9.597656 -18.160156 8.085938 -18.246094 C 2.484375 -18.574219 -1.480469 -12.675781 -0.628906 -8.355469 C -0.316406 -5.921875 1.191406 -3.546875 3.25 -2.253906 Z M 2.3125 -10.488281 C 2.617188 -12.574219 4.75 -14.859375 6.65625 -15.238281 C 7.929688 -15.5 9.050781 -15.273438 9.773438 -14.015625 C 10.308594 -13.109375 10.816406 -12.199219 10.996094 -10.917969 C 11.03125 -9.125 10.945312 -7.207031 9.597656 -5.570312 C 8.363281 -4.0625 6.886719 -3.71875 5.21875 -4.546875 C 3.171875 -5.539062 1.902344 -8.167969 2.3125 -10.488281 Z M 2.3125 -10.488281 "/></g></g></g><g fill="#000000" fill-opacity="0.4"><g transform="translate(78.119611, 152.913478)"><g><path d="M 3.117188 1.25 C 4.074219 1.089844 4.304688 0.402344 4.191406 -0.425781 C 4.066406 -1.496094 3.839844 -2.527344 3.71875 -3.574219 C 3.640625 -4.136719 3.234375 -4.894531 3.925781 -5.210938 C 4.714844 -5.59375 5.535156 -6.171875 6.488281 -5.597656 C 7.203125 -5.152344 7.847656 -4.644531 8.542969 -4.144531 C 9.632812 -3.371094 10.730469 -2.542969 11.867188 -1.832031 C 12.902344 -1.242188 13.941406 -1.414062 14.273438 -2.144531 C 14.726562 -3.1875 14.175781 -3.816406 13.332031 -4.378906 C 11.960938 -5.414062 10.632812 -6.535156 9.164062 -7.691406 C 9.726562 -8.339844 10.304688 -8.859375 10.738281 -9.464844 C 13.519531 -12.933594 11.894531 -16.929688 7.457031 -17.695312 C 4.527344 -18.179688 1.980469 -17.113281 -0.347656 -15.453125 C -1.089844 -14.914062 -1.703125 -14.0625 -1.191406 -13.128906 C -0.167969 -11.089844 -0.136719 -8.917969 0.226562 -6.734375 C 0.589844 -4.523438 1.015625 -2.269531 1.40625 -0.0625 C 1.574219 0.921875 2.136719 1.441406 3.117188 1.25 Z M 2.617188 -11.046875 C 2.117188 -13.808594 2.601562 -14.449219 5.417969 -14.765625 C 5.976562 -14.84375 6.609375 -14.796875 7.199219 -14.6875 C 9.25 -14.242188 9.726562 -12.972656 8.410156 -11.289062 C 7.421875 -10.007812 6.03125 -9.238281 4.558594 -8.652344 C 3.324219 -8.148438 3.078125 -8.332031 2.828125 -9.714844 C 2.742188 -10.136719 2.675781 -10.621094 2.617188 -11.046875 Z M 2.617188 -11.046875 "/></g></g></g><g fill="#000000" fill-opacity="0.4"><g transform="translate(93.213777, 150.791694)"><g><path d="M 7.152344 -1.824219 C 10.945312 -2.164062 13.433594 -4.832031 13.648438 -8.730469 C 13.761719 -11.007812 13.144531 -11.546875 10.851562 -11.167969 C 10.453125 -11.113281 10.085938 -11.007812 9.742188 -10.933594 L 9.738281 -10.957031 C 8.863281 -10.78125 7.933594 -10.621094 7.074219 -10.339844 C 6.207031 -10.109375 5.585938 -9.476562 5.921875 -8.460938 C 6.140625 -7.675781 6.789062 -7.328125 7.667969 -7.480469 C 8.226562 -7.558594 8.722656 -7.710938 9.230469 -7.78125 C 9.578125 -7.832031 9.992188 -7.996094 10.238281 -7.597656 C 10.484375 -7.195312 10.210938 -6.828125 10.039062 -6.503906 C 8.5 -4.082031 4.835938 -4.167969 3.148438 -6.679688 C 1.265625 -9.414062 2.222656 -14.234375 4.992188 -16.039062 C 6.097656 -16.710938 7.273438 -16.851562 8.410156 -16.140625 C 9.308594 -15.558594 10.078125 -14.929688 10.480469 -13.816406 C 10.730469 -13.003906 11.457031 -12.671875 12.308594 -13.007812 C 13.144531 -13.289062 13.28125 -14.042969 13.167969 -14.847656 C 13.132812 -15.113281 13.03125 -15.453125 12.886719 -15.707031 C 11.09375 -18.941406 6.511719 -21.320312 2.753906 -18.011719 C -0.40625 -15.28125 -1.292969 -11.722656 -0.519531 -7.773438 C 0.171875 -4 3.632812 -1.492188 7.152344 -1.824219 Z M 7.152344 -1.824219 "/></g></g></g><g fill="#000000" fill-opacity="0.4"><g transform="translate(108.708668, 148.613581)"><g><path d="M 12.855469 -3.714844 C 13.632812 -4.96875 13.984375 -6.324219 14.109375 -7.757812 C 14.230469 -9.820312 14.027344 -11.835938 13.714844 -13.859375 C 13.535156 -15.144531 13.390625 -16.375 13.183594 -17.652344 C 13.035156 -18.503906 12.527344 -19.03125 11.636719 -18.960938 C 10.722656 -18.886719 10.351562 -18.238281 10.332031 -17.390625 C 10.324219 -16.871094 10.371094 -16.332031 10.449219 -15.796875 C 10.671875 -14.003906 10.871094 -12.207031 11.125 -10.390625 C 11.265625 -9.210938 11.21875 -7.980469 10.976562 -6.800781 C 10.601562 -5.003906 9.226562 -3.558594 7.753906 -3.378906 C 5.898438 -3.199219 4.582031 -4.023438 3.625 -5.605469 C 2.582031 -7.417969 2.011719 -9.328125 1.855469 -11.402344 C 1.726562 -12.910156 1.625 -14.421875 1.519531 -15.933594 C 1.421875 -16.816406 0.914062 -17.347656 0.046875 -17.304688 C -0.855469 -17.316406 -1.277344 -16.65625 -1.324219 -15.804688 C -1.355469 -15.445312 -1.414062 -15.085938 -1.359375 -14.710938 C -1.144531 -12.589844 -0.984375 -10.488281 -0.609375 -8.414062 C -0.328125 -6.601562 0.476562 -4.945312 1.503906 -3.453125 C 3.871094 0.0273438 9.730469 1.382812 12.855469 -3.714844 Z M 12.855469 -3.714844 "/></g></g></g><g fill="#000000" fill-opacity="0.4"><g transform="translate(124.604295, 146.379136)"><g><path d="M 4.125 -0.117188 C 6.507812 -0.398438 8.867188 -0.867188 11.265625 -1.257812 C 12.089844 -1.398438 12.871094 -1.644531 13.644531 -1.972656 C 14.347656 -2.207031 14.722656 -2.832031 14.535156 -3.570312 C 14.375 -4.335938 13.804688 -4.691406 13.023438 -4.636719 C 12.59375 -4.601562 12.125 -4.457031 11.699219 -4.367188 C 9.355469 -3.984375 7.097656 -3.585938 4.785156 -3.179688 C 3.667969 -2.96875 3.171875 -3.414062 3.042969 -4.515625 C 2.78125 -6.574219 2.472656 -8.574219 2.195312 -10.550781 L 2.085938 -10.535156 C 1.945312 -11.742188 1.851562 -12.984375 1.742188 -14.167969 C 1.628906 -15.160156 1.550781 -16.101562 1.382812 -17.113281 C 1.253906 -17.828125 0.726562 -18.273438 -0.0820312 -18.214844 C -0.835938 -18.164062 -1.3125 -17.660156 -1.3125 -16.898438 C -1.359375 -16.453125 -1.347656 -15.992188 -1.34375 -15.558594 C -1.207031 -11.300781 -0.402344 -7.136719 0.230469 -3.003906 C 0.644531 -0.445312 1.503906 0.226562 4.125 -0.117188 Z M 4.125 -0.117188 "/></g></g></g><g fill="#000000" fill-opacity="0.4"><g transform="translate(139.885468, 144.231065)"><g><path d="M 4.125 -0.117188 C 6.507812 -0.398438 8.867188 -0.867188 11.265625 -1.257812 C 12.089844 -1.398438 12.871094 -1.644531 13.644531 -1.972656 C 14.347656 -2.207031 14.722656 -2.832031 14.535156 -3.570312 C 14.375 -4.335938 13.804688 -4.691406 13.023438 -4.636719 C 12.59375 -4.601562 12.125 -4.457031 11.699219 -4.367188 C 9.355469 -3.984375 7.097656 -3.585938 4.785156 -3.179688 C 3.667969 -2.96875 3.171875 -3.414062 3.042969 -4.515625 C 2.78125 -6.574219 2.472656 -8.574219 2.195312 -10.550781 L 2.085938 -10.535156 C 1.945312 -11.742188 1.851562 -12.984375 1.742188 -14.167969 C 1.628906 -15.160156 1.550781 -16.101562 1.382812 -17.113281 C 1.253906 -17.828125 0.726562 -18.273438 -0.0820312 -18.214844 C -0.835938 -18.164062 -1.3125 -17.660156 -1.3125 -16.898438 C -1.359375 -16.453125 -1.347656 -15.992188 -1.34375 -15.558594 C -1.207031 -11.300781 -0.402344 -7.136719 0.230469 -3.003906 C 0.644531 -0.445312 1.503906 0.226562 4.125 -0.117188 Z M 4.125 -0.117188 "/></g></g></g><g fill="#000000" fill-opacity="0.4"><g transform="translate(155.16664, 142.082993)"><g><path d="M 3.25 -2.253906 C 5.902344 -0.640625 9.585938 -0.613281 11.925781 -3.71875 C 14.640625 -7.289062 14.589844 -12.292969 11.679688 -16.324219 C 10.792969 -17.589844 9.597656 -18.160156 8.085938 -18.246094 C 2.484375 -18.574219 -1.480469 -12.675781 -0.628906 -8.355469 C -0.316406 -5.921875 1.191406 -3.546875 3.25 -2.253906 Z M 2.3125 -10.488281 C 2.617188 -12.574219 4.75 -14.859375 6.65625 -15.238281 C 7.929688 -15.5 9.050781 -15.273438 9.773438 -14.015625 C 10.308594 -13.109375 10.816406 -12.199219 10.996094 -10.917969 C 11.03125 -9.125 10.945312 -7.207031 9.597656 -5.570312 C 8.363281 -4.0625 6.886719 -3.71875 5.21875 -4.546875 C 3.171875 -5.539062 1.902344 -8.167969 2.3125 -10.488281 Z M 2.3125 -10.488281 "/></g></g></g><g fill="#ffc055" fill-opacity="1"><g transform="translate(61.171232, 154.091919)"><g><path d="M 3.25 -2.253906 C 5.902344 -0.640625 9.585938 -0.613281 11.925781 -3.71875 C 14.640625 -7.289062 14.589844 -12.292969 11.679688 -16.324219 C 10.792969 -17.589844 9.597656 -18.160156 8.085938 -18.246094 C 2.484375 -18.574219 -1.480469 -12.675781 -0.628906 -8.355469 C -0.316406 -5.921875 1.191406 -3.546875 3.25 -2.253906 Z M 2.3125 -10.488281 C 2.617188 -12.574219 4.75 -14.859375 6.65625 -15.238281 C 7.929688 -15.5 9.050781 -15.273438 9.773438 -14.015625 C 10.308594 -13.109375 10.816406 -12.199219 10.996094 -10.917969 C 11.03125 -9.125 10.945312 -7.207031 9.597656 -5.570312 C 8.363281 -4.0625 6.886719 -3.71875 5.21875 -4.546875 C 3.171875 -5.539062 1.902344 -8.167969 2.3125 -10.488281 Z M 2.3125 -10.488281 "/></g></g></g><g fill="#ffc055" fill-opacity="1"><g transform="translate(76.772982, 151.898784)"><g><path d="M 3.117188 1.25 C 4.074219 1.089844 4.304688 0.402344 4.191406 -0.425781 C 4.066406 -1.496094 3.839844 -2.527344 3.71875 -3.574219 C 3.640625 -4.136719 3.234375 -4.894531 3.925781 -5.210938 C 4.714844 -5.59375 5.535156 -6.171875 6.488281 -5.597656 C 7.203125 -5.152344 7.847656 -4.644531 8.542969 -4.144531 C 9.632812 -3.371094 10.730469 -2.542969 11.867188 -1.832031 C 12.902344 -1.242188 13.941406 -1.414062 14.273438 -2.144531 C 14.726562 -3.1875 14.175781 -3.816406 13.332031 -4.378906 C 11.960938 -5.414062 10.632812 -6.535156 9.164062 -7.691406 C 9.726562 -8.339844 10.304688 -8.859375 10.738281 -9.464844 C 13.519531 -12.933594 11.894531 -16.929688 7.457031 -17.695312 C 4.527344 -18.179688 1.980469 -17.113281 -0.347656 -15.453125 C -1.089844 -14.914062 -1.703125 -14.0625 -1.191406 -13.128906 C -0.167969 -11.089844 -0.136719 -8.917969 0.226562 -6.734375 C 0.589844 -4.523438 1.015625 -2.269531 1.40625 -0.0625 C 1.574219 0.921875 2.136719 1.441406 3.117188 1.25 Z M 2.617188 -11.046875 C 2.117188 -13.808594 2.601562 -14.449219 5.417969 -14.765625 C 5.976562 -14.84375 6.609375 -14.796875 7.199219 -14.6875 C 9.25 -14.242188 9.726562 -12.972656 8.410156 -11.289062 C 7.421875 -10.007812 6.03125 -9.238281 4.558594 -8.652344 C 3.324219 -8.148438 3.078125 -8.332031 2.828125 -9.714844 C 2.742188 -10.136719 2.675781 -10.621094 2.617188 -11.046875 Z M 2.617188 -11.046875 "/></g></g></g><g fill="#ffc055" fill-opacity="1"><g transform="translate(91.867149, 149.777001)"><g><path d="M 7.152344 -1.824219 C 10.945312 -2.164062 13.433594 -4.832031 13.648438 -8.730469 C 13.761719 -11.007812 13.144531 -11.546875 10.851562 -11.167969 C 10.453125 -11.113281 10.085938 -11.007812 9.742188 -10.933594 L 9.738281 -10.957031 C 8.863281 -10.78125 7.933594 -10.621094 7.074219 -10.339844 C 6.207031 -10.109375 5.585938 -9.476562 5.921875 -8.460938 C 6.140625 -7.675781 6.789062 -7.328125 7.667969 -7.480469 C 8.226562 -7.558594 8.722656 -7.710938 9.230469 -7.78125 C 9.578125 -7.832031 9.992188 -7.996094 10.238281 -7.597656 C 10.484375 -7.195312 10.210938 -6.828125 10.039062 -6.503906 C 8.5 -4.082031 4.835938 -4.167969 3.148438 -6.679688 C 1.265625 -9.414062 2.222656 -14.234375 4.992188 -16.039062 C 6.097656 -16.710938 7.273438 -16.851562 8.410156 -16.140625 C 9.308594 -15.558594 10.078125 -14.929688 10.480469 -13.816406 C 10.730469 -13.003906 11.457031 -12.671875 12.308594 -13.007812 C 13.144531 -13.289062 13.28125 -14.042969 13.167969 -14.847656 C 13.132812 -15.113281 13.03125 -15.453125 12.886719 -15.707031 C 11.09375 -18.941406 6.511719 -21.320312 2.753906 -18.011719 C -0.40625 -15.28125 -1.292969 -11.722656 -0.519531 -7.773438 C 0.171875 -4 3.632812 -1.492188 7.152344 -1.824219 Z M 7.152344 -1.824219 "/></g></g></g><g fill="#ffc055" fill-opacity="1"><g transform="translate(107.36204, 147.598887)"><g><path d="M 12.855469 -3.714844 C 13.632812 -4.96875 13.984375 -6.324219 14.109375 -7.757812 C 14.230469 -9.820312 14.027344 -11.835938 13.714844 -13.859375 C 13.535156 -15.144531 13.390625 -16.375 13.183594 -17.652344 C 13.035156 -18.503906 12.527344 -19.03125 11.636719 -18.960938 C 10.722656 -18.886719 10.351562 -18.238281 10.332031 -17.390625 C 10.324219 -16.871094 10.371094 -16.332031 10.449219 -15.796875 C 10.671875 -14.003906 10.871094 -12.207031 11.125 -10.390625 C 11.265625 -9.210938 11.21875 -7.980469 10.976562 -6.800781 C 10.601562 -5.003906 9.226562 -3.558594 7.753906 -3.378906 C 5.898438 -3.199219 4.582031 -4.023438 3.625 -5.605469 C 2.582031 -7.417969 2.011719 -9.328125 1.855469 -11.402344 C 1.726562 -12.910156 1.625 -14.421875 1.519531 -15.933594 C 1.421875 -16.816406 0.914062 -17.347656 0.046875 -17.304688 C -0.855469 -17.316406 -1.277344 -16.65625 -1.324219 -15.804688 C -1.355469 -15.445312 -1.414062 -15.085938 -1.359375 -14.710938 C -1.144531 -12.589844 -0.984375 -10.488281 -0.609375 -8.414062 C -0.328125 -6.601562 0.476562 -4.945312 1.503906 -3.453125 C 3.871094 0.0273438 9.730469 1.382812 12.855469 -3.714844 Z M 12.855469 -3.714844 "/></g></g></g><g fill="#ffc055" fill-opacity="1"><g transform="translate(123.257667, 145.364442)"><g><path d="M 4.125 -0.117188 C 6.507812 -0.398438 8.867188 -0.867188 11.265625 -1.257812 C 12.089844 -1.398438 12.871094 -1.644531 13.644531 -1.972656 C 14.347656 -2.207031 14.722656 -2.832031 14.535156 -3.570312 C 14.375 -4.335938 13.804688 -4.691406 13.023438 -4.636719 C 12.59375 -4.601562 12.125 -4.457031 11.699219 -4.367188 C 9.355469 -3.984375 7.097656 -3.585938 4.785156 -3.179688 C 3.667969 -2.96875 3.171875 -3.414062 3.042969 -4.515625 C 2.78125 -6.574219 2.472656 -8.574219 2.195312 -10.550781 L 2.085938 -10.535156 C 1.945312 -11.742188 1.851562 -12.984375 1.742188 -14.167969 C 1.628906 -15.160156 1.550781 -16.101562 1.382812 -17.113281 C 1.253906 -17.828125 0.726562 -18.273438 -0.0820312 -18.214844 C -0.835938 -18.164062 -1.3125 -17.660156 -1.3125 -16.898438 C -1.359375 -16.453125 -1.347656 -15.992188 -1.34375 -15.558594 C -1.207031 -11.300781 -0.402344 -7.136719 0.230469 -3.003906 C 0.644531 -0.445312 1.503906 0.226562 4.125 -0.117188 Z M 4.125 -0.117188 "/></g></g></g><g fill="#ffc055" fill-opacity="1"><g transform="translate(138.53884, 143.216371)"><g><path d="M 4.125 -0.117188 C 6.507812 -0.398438 8.867188 -0.867188 11.265625 -1.257812 C 12.089844 -1.398438 12.871094 -1.644531 13.644531 -1.972656 C 14.347656 -2.207031 14.722656 -2.832031 14.535156 -3.570312 C 14.375 -4.335938 13.804688 -4.691406 13.023438 -4.636719 C 12.59375 -4.601562 12.125 -4.457031 11.699219 -4.367188 C 9.355469 -3.984375 7.097656 -3.585938 4.785156 -3.179688 C 3.667969 -2.96875 3.171875 -3.414062 3.042969 -4.515625 C 2.78125 -6.574219 2.472656 -8.574219 2.195312 -10.550781 L 2.085938 -10.535156 C 1.945312 -11.742188 1.851562 -12.984375 1.742188 -14.167969 C 1.628906 -15.160156 1.550781 -16.101562 1.382812 -17.113281 C 1.253906 -17.828125 0.726562 -18.273438 -0.0820312 -18.214844 C -0.835938 -18.164062 -1.3125 -17.660156 -1.3125 -16.898438 C -1.359375 -16.453125 -1.347656 -15.992188 -1.34375 -15.558594 C -1.207031 -11.300781 -0.402344 -7.136719 0.230469 -3.003906 C 0.644531 -0.445312 1.503906 0.226562 4.125 -0.117188 Z M 4.125 -0.117188 "/></g></g></g><g fill="#ffc055" fill-opacity="1"><g transform="translate(153.820012, 141.0683)"><g><path d="M 3.25 -2.253906 C 5.902344 -0.640625 9.585938 -0.613281 11.925781 -3.71875 C 14.640625 -7.289062 14.589844 -12.292969 11.679688 -16.324219 C 10.792969 -17.589844 9.597656 -18.160156 8.085938 -18.246094 C 2.484375 -18.574219 -1.480469 -12.675781 -0.628906 -8.355469 C -0.316406 -5.921875 1.191406 -3.546875 3.25 -2.253906 Z M 2.3125 -10.488281 C 2.617188 -12.574219 4.75 -14.859375 6.65625 -15.238281 C 7.929688 -15.5 9.050781 -15.273438 9.773438 -14.015625 C 10.308594 -13.109375 10.816406 -12.199219 10.996094 -10.917969 C 11.03125 -9.125 10.945312 -7.207031 9.597656 -5.570312 C 8.363281 -4.0625 6.886719 -3.71875 5.21875 -4.546875 C 3.171875 -5.539062 1.902344 -8.167969 2.3125 -10.488281 Z M 2.3125 -10.488281 "/></g></g></g><g fill="#000000" fill-opacity="0.4"><g transform="translate(69.820783, 191.917841)"><g><path d="M 15.546875 -2.1875 C 16.15625 -2.515625 16.359375 -3.007812 16.292969 -3.871094 C 16.152344 -4.097656 15.984375 -4.507812 15.742188 -4.882812 C 15.277344 -5.660156 14.761719 -6.433594 14.246094 -7.179688 C 11.914062 -10.800781 9.582031 -14.394531 7.222656 -17.988281 C 6.738281 -18.738281 6.183594 -19.394531 5.230469 -19.179688 C 4.28125 -18.964844 3.933594 -18.152344 3.867188 -17.269531 C 3.722656 -15.371094 3.101562 -13.59375 2.652344 -11.761719 C 1.894531 -8.601562 1.085938 -5.464844 0.386719 -2.289062 C 0.113281 -1.132812 0.660156 -0.339844 1.546875 -0.246094 C 2.589844 -0.171875 3.148438 -0.851562 3.191406 -1.730469 C 3.234375 -4.894531 5.183594 -5.960938 7.945312 -6.265625 C 8.382812 -6.273438 8.820312 -6.441406 9.238281 -6.558594 C 10.460938 -6.972656 11.246094 -6.621094 11.867188 -5.507812 C 12.453125 -4.449219 13.164062 -3.457031 13.894531 -2.523438 C 14.292969 -2.007812 14.9375 -1.882812 15.546875 -2.1875 Z M 5.074219 -8.859375 C 5.253906 -10.492188 5.667969 -11.992188 6.382812 -13.511719 C 7.390625 -12.535156 7.960938 -11.390625 8.652344 -10.34375 C 9.023438 -9.851562 8.777344 -9.460938 8.246094 -9.359375 C 7.21875 -9.105469 6.269531 -8.699219 5.074219 -8.859375 Z M 5.074219 -8.859375 "/></g></g></g><g fill="#000000" fill-opacity="0.4"><g transform="translate(86.865161, 189.521916)"><g><path d="M 12.855469 -3.714844 C 13.632812 -4.96875 13.984375 -6.324219 14.109375 -7.757812 C 14.230469 -9.820312 14.027344 -11.835938 13.714844 -13.859375 C 13.535156 -15.144531 13.390625 -16.375 13.183594 -17.652344 C 13.035156 -18.503906 12.527344 -19.03125 11.636719 -18.960938 C 10.722656 -18.886719 10.351562 -18.238281 10.332031 -17.390625 C 10.324219 -16.871094 10.371094 -16.332031 10.449219 -15.796875 C 10.671875 -14.003906 10.871094 -12.207031 11.125 -10.390625 C 11.265625 -9.210938 11.21875 -7.980469 10.976562 -6.800781 C 10.601562 -5.003906 9.226562 -3.558594 7.753906 -3.378906 C 5.898438 -3.199219 4.582031 -4.023438 3.625 -5.605469 C 2.582031 -7.417969 2.011719 -9.328125 1.855469 -11.402344 C 1.726562 -12.910156 1.625 -14.421875 1.519531 -15.933594 C 1.421875 -16.816406 0.914062 -17.347656 0.046875 -17.304688 C -0.855469 -17.316406 -1.277344 -16.65625 -1.324219 -15.804688 C -1.355469 -15.445312 -1.414062 -15.085938 -1.359375 -14.710938 C -1.144531 -12.589844 -0.984375 -10.488281 -0.609375 -8.414062 C -0.328125 -6.601562 0.476562 -4.945312 1.503906 -3.453125 C 3.871094 0.0273438 9.730469 1.382812 12.855469 -3.714844 Z M 12.855469 -3.714844 "/></g></g></g><g fill="#000000" fill-opacity="0.4"><g transform="translate(102.760788, 187.287471)"><g><path d="M 8.429688 -1.867188 C 9.171875 -1.996094 9.617188 -2.523438 9.640625 -3.316406 C 9.640625 -3.699219 9.539062 -4.039062 9.484375 -4.4375 C 8.988281 -7.175781 8.492188 -9.9375 7.972656 -12.671875 C 7.496094 -15.464844 7.308594 -15.25 10.222656 -15.65625 C 11.425781 -15.828125 12.652344 -16 13.824219 -16.191406 C 14.667969 -16.390625 15.15625 -16.976562 15.035156 -17.859375 C 14.921875 -18.660156 14.378906 -19.019531 13.589844 -19.019531 C 13.070312 -19.027344 12.539062 -18.953125 12.003906 -18.878906 C 10.53125 -18.699219 9.011719 -18.457031 7.542969 -18.25 C 4.855469 -17.792969 2.214844 -17.203125 -0.441406 -16.503906 C -1.277344 -16.25 -1.683594 -15.671875 -1.535156 -14.796875 C -1.375 -13.863281 -0.660156 -13.609375 0.167969 -13.726562 C 1.152344 -13.894531 2.085938 -14.050781 3.054688 -14.324219 C 4.183594 -14.617188 4.648438 -14.21875 4.863281 -13.078125 C 5.507812 -10.226562 6.011719 -7.4375 6.433594 -4.609375 C 6.523438 -3.96875 6.65625 -3.222656 6.960938 -2.613281 C 7.199219 -2.074219 7.765625 -1.746094 8.429688 -1.867188 Z M 8.429688 -1.867188 "/></g></g></g><g fill="#000000" fill-opacity="0.4"><g transform="translate(120.499768, 184.793906)"><g><path d="M 2.382812 0.101562 C 3.226562 -0.0976562 3.582031 -0.695312 3.511719 -1.582031 C 3.492188 -1.90625 3.421875 -2.199219 3.382812 -2.492188 L 2.398438 -9.492188 C 2.09375 -11.273438 1.917969 -14.082031 1.128906 -16.777344 C 0.734375 -18.03125 0.125 -18.488281 -0.742188 -18.257812 C -1.785156 -17.921875 -1.867188 -17.144531 -1.742188 -16.265625 C -1 -11.574219 -0.3125 -6.875 0.402344 -2.179688 C 0.457031 -1.78125 0.507812 -1.433594 0.691406 -1.078125 C 0.9375 -0.296875 1.453125 0.257812 2.382812 0.101562 Z M 2.382812 0.101562 "/></g></g></g><g fill="#000000" fill-opacity="0.4"><g transform="translate(124.694079, 184.204313)"><g><path d="M 7.066406 -0.121094 C 8.730469 -0.300781 10.316406 -0.851562 11.3125 -1.507812 C 13.648438 -3.089844 14.039062 -6.140625 12.195312 -8.199219 C 10.894531 -9.703125 9.25 -10.5625 7.289062 -10.75 C 5.992188 -10.867188 4.71875 -11.015625 3.457031 -11.246094 C 2.652344 -11.378906 2 -11.75 1.824219 -12.597656 C 1.652344 -13.445312 1.871094 -14.210938 2.542969 -14.851562 C 4.125 -16.382812 6.511719 -16.28125 7.949219 -14.574219 C 8.269531 -14.238281 8.480469 -13.886719 8.703125 -13.484375 C 9.230469 -12.628906 9.839844 -11.980469 10.933594 -12.542969 C 11.789062 -13.042969 11.84375 -13.816406 11.195312 -15.140625 C 9.195312 -18.890625 5.011719 -19.964844 1.324219 -17.703125 C -0.695312 -16.382812 -1.355469 -14.492188 -1.183594 -12.285156 C -1.050781 -10.367188 0.613281 -8.804688 2.941406 -8.339844 C 4.257812 -8.089844 5.613281 -7.925781 6.941406 -7.785156 C 8.164062 -7.632812 9.171875 -7.226562 9.902344 -6.296875 C 10.433594 -5.632812 10.507812 -4.910156 9.917969 -4.253906 C 8.273438 -2.390625 4.804688 -2.636719 3.433594 -4.652344 C 3.242188 -5.03125 2.996094 -5.433594 2.757812 -5.78125 C 2.25 -6.472656 1.601562 -6.816406 0.800781 -6.324219 C -0.0078125 -5.882812 -0.0117188 -5.121094 0.289062 -4.34375 C 1.339844 -1.140625 3.636719 0.277344 7.066406 -0.121094 Z M 7.066406 -0.121094 "/></g></g></g><g fill="#000000" fill-opacity="0.4"><g transform="translate(139.093644, 182.180169)"><g><path d="M 8.429688 -1.867188 C 9.171875 -1.996094 9.617188 -2.523438 9.640625 -3.316406 C 9.640625 -3.699219 9.539062 -4.039062 9.484375 -4.4375 C 8.988281 -7.175781 8.492188 -9.9375 7.972656 -12.671875 C 7.496094 -15.464844 7.308594 -15.25 10.222656 -15.65625 C 11.425781 -15.828125 12.652344 -16 13.824219 -16.191406 C 14.667969 -16.390625 15.15625 -16.976562 15.035156 -17.859375 C 14.921875 -18.660156 14.378906 -19.019531 13.589844 -19.019531 C 13.070312 -19.027344 12.539062 -18.953125 12.003906 -18.878906 C 10.53125 -18.699219 9.011719 -18.457031 7.542969 -18.25 C 4.855469 -17.792969 2.214844 -17.203125 -0.441406 -16.503906 C -1.277344 -16.25 -1.683594 -15.671875 -1.535156 -14.796875 C -1.375 -13.863281 -0.660156 -13.609375 0.167969 -13.726562 C 1.152344 -13.894531 2.085938 -14.050781 3.054688 -14.324219 C 4.183594 -14.617188 4.648438 -14.21875 4.863281 -13.078125 C 5.507812 -10.226562 6.011719 -7.4375 6.433594 -4.609375 C 6.523438 -3.96875 6.65625 -3.222656 6.960938 -2.613281 C 7.199219 -2.074219 7.765625 -1.746094 8.429688 -1.867188 Z M 8.429688 -1.867188 "/></g></g></g><g fill="#000000" fill-opacity="0.4"><g transform="translate(156.832624, 179.686604)"><g><path d="M 15.546875 -2.1875 C 16.15625 -2.515625 16.359375 -3.007812 16.292969 -3.871094 C 16.152344 -4.097656 15.984375 -4.507812 15.742188 -4.882812 C 15.277344 -5.660156 14.761719 -6.433594 14.246094 -7.179688 C 11.914062 -10.800781 9.582031 -14.394531 7.222656 -17.988281 C 6.738281 -18.738281 6.183594 -19.394531 5.230469 -19.179688 C 4.28125 -18.964844 3.933594 -18.152344 3.867188 -17.269531 C 3.722656 -15.371094 3.101562 -13.59375 2.652344 -11.761719 C 1.894531 -8.601562 1.085938 -5.464844 0.386719 -2.289062 C 0.113281 -1.132812 0.660156 -0.339844 1.546875 -0.246094 C 2.589844 -0.171875 3.148438 -0.851562 3.191406 -1.730469 C 3.234375 -4.894531 5.183594 -5.960938 7.945312 -6.265625 C 8.382812 -6.273438 8.820312 -6.441406 9.238281 -6.558594 C 10.460938 -6.972656 11.246094 -6.621094 11.867188 -5.507812 C 12.453125 -4.449219 13.164062 -3.457031 13.894531 -2.523438 C 14.292969 -2.007812 14.9375 -1.882812 15.546875 -2.1875 Z M 5.074219 -8.859375 C 5.253906 -10.492188 5.667969 -11.992188 6.382812 -13.511719 C 7.390625 -12.535156 7.960938 -11.390625 8.652344 -10.34375 C 9.023438 -9.851562 8.777344 -9.460938 8.246094 -9.359375 C 7.21875 -9.105469 6.269531 -8.699219 5.074219 -8.859375 Z M 5.074219 -8.859375 "/></g></g></g><g fill="#ffc055" fill-opacity="1"><g transform="translate(68.474155, 190.903147)"><g><path d="M 15.546875 -2.1875 C 16.15625 -2.515625 16.359375 -3.007812 16.292969 -3.871094 C 16.152344 -4.097656 15.984375 -4.507812 15.742188 -4.882812 C 15.277344 -5.660156 14.761719 -6.433594 14.246094 -7.179688 C 11.914062 -10.800781 9.582031 -14.394531 7.222656 -17.988281 C 6.738281 -18.738281 6.183594 -19.394531 5.230469 -19.179688 C 4.28125 -18.964844 3.933594 -18.152344 3.867188 -17.269531 C 3.722656 -15.371094 3.101562 -13.59375 2.652344 -11.761719 C 1.894531 -8.601562 1.085938 -5.464844 0.386719 -2.289062 C 0.113281 -1.132812 0.660156 -0.339844 1.546875 -0.246094 C 2.589844 -0.171875 3.148438 -0.851562 3.191406 -1.730469 C 3.234375 -4.894531 5.183594 -5.960938 7.945312 -6.265625 C 8.382812 -6.273438 8.820312 -6.441406 9.238281 -6.558594 C 10.460938 -6.972656 11.246094 -6.621094 11.867188 -5.507812 C 12.453125 -4.449219 13.164062 -3.457031 13.894531 -2.523438 C 14.292969 -2.007812 14.9375 -1.882812 15.546875 -2.1875 Z M 5.074219 -8.859375 C 5.253906 -10.492188 5.667969 -11.992188 6.382812 -13.511719 C 7.390625 -12.535156 7.960938 -11.390625 8.652344 -10.34375 C 9.023438 -9.851562 8.777344 -9.460938 8.246094 -9.359375 C 7.21875 -9.105469 6.269531 -8.699219 5.074219 -8.859375 Z M 5.074219 -8.859375 "/></g></g></g><g fill="#ffc055" fill-opacity="1"><g transform="translate(85.518533, 188.507222)"><g><path d="M 12.855469 -3.714844 C 13.632812 -4.96875 13.984375 -6.324219 14.109375 -7.757812 C 14.230469 -9.820312 14.027344 -11.835938 13.714844 -13.859375 C 13.535156 -15.144531 13.390625 -16.375 13.183594 -17.652344 C 13.035156 -18.503906 12.527344 -19.03125 11.636719 -18.960938 C 10.722656 -18.886719 10.351562 -18.238281 10.332031 -17.390625 C 10.324219 -16.871094 10.371094 -16.332031 10.449219 -15.796875 C 10.671875 -14.003906 10.871094 -12.207031 11.125 -10.390625 C 11.265625 -9.210938 11.21875 -7.980469 10.976562 -6.800781 C 10.601562 -5.003906 9.226562 -3.558594 7.753906 -3.378906 C 5.898438 -3.199219 4.582031 -4.023438 3.625 -5.605469 C 2.582031 -7.417969 2.011719 -9.328125 1.855469 -11.402344 C 1.726562 -12.910156 1.625 -14.421875 1.519531 -15.933594 C 1.421875 -16.816406 0.914062 -17.347656 0.046875 -17.304688 C -0.855469 -17.316406 -1.277344 -16.65625 -1.324219 -15.804688 C -1.355469 -15.445312 -1.414062 -15.085938 -1.359375 -14.710938 C -1.144531 -12.589844 -0.984375 -10.488281 -0.609375 -8.414062 C -0.328125 -6.601562 0.476562 -4.945312 1.503906 -3.453125 C 3.871094 0.0273438 9.730469 1.382812 12.855469 -3.714844 Z M 12.855469 -3.714844 "/></g></g></g><g fill="#ffc055" fill-opacity="1"><g transform="translate(101.41416, 186.272777)"><g><path d="M 8.429688 -1.867188 C 9.171875 -1.996094 9.617188 -2.523438 9.640625 -3.316406 C 9.640625 -3.699219 9.539062 -4.039062 9.484375 -4.4375 C 8.988281 -7.175781 8.492188 -9.9375 7.972656 -12.671875 C 7.496094 -15.464844 7.308594 -15.25 10.222656 -15.65625 C 11.425781 -15.828125 12.652344 -16 13.824219 -16.191406 C 14.667969 -16.390625 15.15625 -16.976562 15.035156 -17.859375 C 14.921875 -18.660156 14.378906 -19.019531 13.589844 -19.019531 C 13.070312 -19.027344 12.539062 -18.953125 12.003906 -18.878906 C 10.53125 -18.699219 9.011719 -18.457031 7.542969 -18.25 C 4.855469 -17.792969 2.214844 -17.203125 -0.441406 -16.503906 C -1.277344 -16.25 -1.683594 -15.671875 -1.535156 -14.796875 C -1.375 -13.863281 -0.660156 -13.609375 0.167969 -13.726562 C 1.152344 -13.894531 2.085938 -14.050781 3.054688 -14.324219 C 4.183594 -14.617188 4.648438 -14.21875 4.863281 -13.078125 C 5.507812 -10.226562 6.011719 -7.4375 6.433594 -4.609375 C 6.523438 -3.96875 6.65625 -3.222656 6.960938 -2.613281 C 7.199219 -2.074219 7.765625 -1.746094 8.429688 -1.867188 Z M 8.429688 -1.867188 "/></g></g></g><g fill="#ffc055" fill-opacity="1"><g transform="translate(119.153139, 183.779213)"><g><path d="M 2.382812 0.101562 C 3.226562 -0.0976562 3.582031 -0.695312 3.511719 -1.582031 C 3.492188 -1.90625 3.421875 -2.199219 3.382812 -2.492188 L 2.398438 -9.492188 C 2.09375 -11.273438 1.917969 -14.082031 1.128906 -16.777344 C 0.734375 -18.03125 0.125 -18.488281 -0.742188 -18.257812 C -1.785156 -17.921875 -1.867188 -17.144531 -1.742188 -16.265625 C -1 -11.574219 -0.3125 -6.875 0.402344 -2.179688 C 0.457031 -1.78125 0.507812 -1.433594 0.691406 -1.078125 C 0.9375 -0.296875 1.453125 0.257812 2.382812 0.101562 Z M 2.382812 0.101562 "/></g></g></g><g fill="#ffc055" fill-opacity="1"><g transform="translate(123.347451, 183.189619)"><g><path d="M 7.066406 -0.121094 C 8.730469 -0.300781 10.316406 -0.851562 11.3125 -1.507812 C 13.648438 -3.089844 14.039062 -6.140625 12.195312 -8.199219 C 10.894531 -9.703125 9.25 -10.5625 7.289062 -10.75 C 5.992188 -10.867188 4.71875 -11.015625 3.457031 -11.246094 C 2.652344 -11.378906 2 -11.75 1.824219 -12.597656 C 1.652344 -13.445312 1.871094 -14.210938 2.542969 -14.851562 C 4.125 -16.382812 6.511719 -16.28125 7.949219 -14.574219 C 8.269531 -14.238281 8.480469 -13.886719 8.703125 -13.484375 C 9.230469 -12.628906 9.839844 -11.980469 10.933594 -12.542969 C 11.789062 -13.042969 11.84375 -13.816406 11.195312 -15.140625 C 9.195312 -18.890625 5.011719 -19.964844 1.324219 -17.703125 C -0.695312 -16.382812 -1.355469 -14.492188 -1.183594 -12.285156 C -1.050781 -10.367188 0.613281 -8.804688 2.941406 -8.339844 C 4.257812 -8.089844 5.613281 -7.925781 6.941406 -7.785156 C 8.164062 -7.632812 9.171875 -7.226562 9.902344 -6.296875 C 10.433594 -5.632812 10.507812 -4.910156 9.917969 -4.253906 C 8.273438 -2.390625 4.804688 -2.636719 3.433594 -4.652344 C 3.242188 -5.03125 2.996094 -5.433594 2.757812 -5.78125 C 2.25 -6.472656 1.601562 -6.816406 0.800781 -6.324219 C -0.0078125 -5.882812 -0.0117188 -5.121094 0.289062 -4.34375 C 1.339844 -1.140625 3.636719 0.277344 7.066406 -0.121094 Z M 7.066406 -0.121094 "/></g></g></g><g fill="#ffc055" fill-opacity="1"><g transform="translate(137.747016, 181.165475)"><g><path d="M 8.429688 -1.867188 C 9.171875 -1.996094 9.617188 -2.523438 9.640625 -3.316406 C 9.640625 -3.699219 9.539062 -4.039062 9.484375 -4.4375 C 8.988281 -7.175781 8.492188 -9.9375 7.972656 -12.671875 C 7.496094 -15.464844 7.308594 -15.25 10.222656 -15.65625 C 11.425781 -15.828125 12.652344 -16 13.824219 -16.191406 C 14.667969 -16.390625 15.15625 -16.976562 15.035156 -17.859375 C 14.921875 -18.660156 14.378906 -19.019531 13.589844 -19.019531 C 13.070312 -19.027344 12.539062 -18.953125 12.003906 -18.878906 C 10.53125 -18.699219 9.011719 -18.457031 7.542969 -18.25 C 4.855469 -17.792969 2.214844 -17.203125 -0.441406 -16.503906 C -1.277344 -16.25 -1.683594 -15.671875 -1.535156 -14.796875 C -1.375 -13.863281 -0.660156 -13.609375 0.167969 -13.726562 C 1.152344 -13.894531 2.085938 -14.050781 3.054688 -14.324219 C 4.183594 -14.617188 4.648438 -14.21875 4.863281 -13.078125 C 5.507812 -10.226562 6.011719 -7.4375 6.433594 -4.609375 C 6.523438 -3.96875 6.65625 -3.222656 6.960938 -2.613281 C 7.199219 -2.074219 7.765625 -1.746094 8.429688 -1.867188 Z M 8.429688 -1.867188 "/></g></g></g><g fill="#ffc055" fill-opacity="1"><g transform="translate(155.485996, 178.671911)"><g><path d="M 15.546875 -2.1875 C 16.15625 -2.515625 16.359375 -3.007812 16.292969 -3.871094 C 16.152344 -4.097656 15.984375 -4.507812 15.742188 -4.882812 C 15.277344 -5.660156 14.761719 -6.433594 14.246094 -7.179688 C 11.914062 -10.800781 9.582031 -14.394531 7.222656 -17.988281 C 6.738281 -18.738281 6.183594 -19.394531 5.230469 -19.179688 C 4.28125 -18.964844 3.933594 -18.152344 3.867188 -17.269531 C 3.722656 -15.371094 3.101562 -13.59375 2.652344 -11.761719 C 1.894531 -8.601562 1.085938 -5.464844 0.386719 -2.289062 C 0.113281 -1.132812 0.660156 -0.339844 1.546875 -0.246094 C 2.589844 -0.171875 3.148438 -0.851562 3.191406 -1.730469 C 3.234375 -4.894531 5.183594 -5.960938 7.945312 -6.265625 C 8.382812 -6.273438 8.820312 -6.441406 9.238281 -6.558594 C 10.460938 -6.972656 11.246094 -6.621094 11.867188 -5.507812 C 12.453125 -4.449219 13.164062 -3.457031 13.894531 -2.523438 C 14.292969 -2.007812 14.9375 -1.882812 15.546875 -2.1875 Z M 5.074219 -8.859375 C 5.253906 -10.492188 5.667969 -11.992188 6.382812 -13.511719 C 7.390625 -12.535156 7.960938 -11.390625 8.652344 -10.34375 C 9.023438 -9.851562 8.777344 -9.460938 8.246094 -9.359375 C 7.21875 -9.105469 6.269531 -8.699219 5.074219 -8.859375 Z M 5.074219 -8.859375 "/></g></g></g></svg>